<?xml version="1.0" standalone="no"?>
<!DOCTYPE svg PUBLIC "-//W3C//DTD SVG 20010904//EN"
 "http://www.w3.org/TR/2001/REC-SVG-20010904/DTD/svg10.dtd">
<svg version="1.0" xmlns="http://www.w3.org/2000/svg"
 width="374.000000pt" height="374.000000pt" viewBox="0 0 374.000000 374.000000"
 preserveAspectRatio="xMidYMid meet">

<g transform="translate(0.000000,374.000000) scale(0.100000,-0.100000)"
fill="#000000" stroke="none">
<path d="M1481 3725 c-351 -77 -712 -298 -957 -586 -440 -519 -575 -1226 -358
-1877 91 -273 230 -502 431 -712 264 -276 553 -436 933 -517 113 -25 144 -27
335 -27 189 0 223 3 336 27 435 92 802 329 1087 702 84 110 224 376 267 510
79 245 99 375 99 640 0 290 -33 468 -132 719 -190 481 -579 871 -1047 1049
-131 50 -287 87 -359 86 l-61 -1 60 -9 c229 -33 475 -127 675 -257 653 -424
969 -1203 810 -1992 -128 -633 -602 -1175 -1200 -1374 -334 -111 -723 -113
-1055 -8 -617 197 -1096 746 -1226 1407 -99 510 4 1024 293 1454 85 127 240
298 353 391 241 197 551 336 842 379 l58 9 -60 0 c-33 0 -89 -6 -124 -13z"/>
<path d="M1715 3724 c-362 -42 -658 -163 -920 -375 -638 -515 -862 -1383 -561
-2172 107 -279 318 -566 557 -757 223 -179 457 -290 740 -352 91 -20 132 -23
329 -22 252 0 337 13 539 80 540 180 982 647 1144 1209 62 213 72 292 72 555
0 206 -3 249 -23 350 -105 521 -396 952 -827 1226 -163 104 -312 167 -500 212
-188 45 -403 63 -550 46z m361 -29 c377 -50 699 -210 983 -488 254 -250 435
-584 505 -933 29 -147 37 -228 37 -396 0 -188 -20 -338 -71 -518 -39 -140 -52
-175 -116 -306 -279 -573 -832 -955 -1437 -993 -543 -34 -1043 180 -1412 604
-391 450 -537 1093 -385 1695 91 363 309 711 594 948 373 311 838 449 1302
387z"/>
<path d="M1687 3510 c-37 -11 -56 -37 -57 -76 0 -38 22 -59 80 -74 74 -18 74
-18 60 -35 -17 -20 -36 -19 -57 4 -13 13 -27 17 -50 14 -39 -6 -42 -26 -12
-63 19 -22 29 -25 86 -25 60 0 67 2 94 33 16 18 29 44 29 58 0 28 -40 74 -65
74 -8 0 -15 5 -15 10 0 6 14 10 30 10 34 0 38 14 11 49 -20 26 -86 37 -134 21z
m71 -68 c3 -9 -3 -13 -19 -10 -12 1 -24 9 -27 16 -3 9 3 13 19 10 12 -1 24 -9
27 -16z"/>
<path d="M2014 3496 c-3 -8 -4 -29 -2 -48 3 -29 6 -33 33 -33 24 0 31 5 38 32
5 18 7 39 4 47 -8 20 -66 21 -73 2z"/>
<path d="M2100 3450 c0 -36 4 -50 14 -50 8 0 21 -2 28 -5 9 -4 18 6 26 28 22
61 13 77 -44 77 -22 0 -24 -4 -24 -50z"/>
<path d="M2229 3452 c-14 -36 -69 -208 -69 -215 0 -10 202 -69 211 -60 5 5 10
19 11 32 3 22 -3 26 -54 40 -45 12 -58 19 -58 34 0 17 5 19 38 12 74 -14 87
-12 87 14 0 18 -7 27 -30 33 -58 18 -78 29 -69 38 6 6 31 4 67 -7 32 -9 59
-14 61 -12 3 2 7 16 11 30 7 27 9 26 -153 75 -42 13 -43 13 -53 -14z"/>
<path d="M1405 3452 c-51 -24 -75 -60 -75 -113 0 -91 58 -146 143 -137 52 6
104 39 118 76 16 41 0 107 -35 147 -39 46 -91 55 -151 27z m78 -65 c23 -16 34
-82 17 -102 -7 -8 -23 -15 -37 -15 -18 0 -28 9 -39 35 -18 44 -18 60 2 79 19
19 35 20 57 3z"/>
<path d="M1182 3363 c-20 -18 -19 -19 34 -130 l53 -112 33 13 c18 8 34 19 36
24 2 6 -12 43 -31 84 -18 40 -40 88 -48 106 -16 37 -45 42 -77 15z"/>
<path d="M2446 3274 c-31 -58 -56 -108 -56 -112 0 -4 39 -27 86 -51 l87 -44
18 24 c10 13 19 27 19 30 0 3 -22 18 -50 33 -27 15 -50 30 -50 34 0 4 14 32
31 62 52 93 53 98 19 115 -16 8 -33 15 -39 15 -5 0 -34 -47 -65 -106z"/>
<path d="M1014 3271 c-91 -56 -98 -144 -17 -218 57 -53 119 -45 191 24 17 16
27 76 16 95 -7 11 -17 13 -41 6 -28 -7 -33 -13 -33 -38 0 -36 -30 -56 -60 -40
-19 10 -50 59 -50 79 0 19 32 41 53 36 24 -6 34 0 56 28 12 15 12 19 -5 32
-26 20 -73 18 -110 -4z"/>
<path d="M2768 3093 c-49 -49 -88 -93 -88 -99 0 -10 45 -54 55 -54 3 0 20 17
40 38 l34 37 1 -31 c0 -17 -5 -45 -11 -62 -10 -30 -8 -35 43 -92 40 -46 58
-59 74 -55 31 7 72 -50 55 -77 -10 -16 -8 -25 9 -54 12 -19 23 -34 26 -34 2 0
37 50 78 112 79 117 78 116 39 165 l-18 23 -113 -32 c-62 -17 -115 -29 -117
-27 -2 3 1 25 8 49 11 40 16 45 42 47 17 1 38 12 48 24 32 39 22 66 -50 141
l-68 69 -87 -88z m142 -65 c0 -14 -37 -9 -50 7 -10 12 -10 18 0 30 11 13 15
12 31 -6 11 -12 19 -26 19 -31z m130 -237 c-13 -25 -26 -27 -34 -6 -4 10 2 19
17 24 28 11 31 8 17 -18z"/>
<path d="M818 3117 c-16 -12 -28 -27 -28 -32 1 -6 39 -50 85 -100 l84 -90 25
24 c14 14 26 29 26 35 0 6 -37 50 -83 98 l-82 88 -27 -23z"/>
<path d="M1715 3055 c-571 -76 -997 -538 -1022 -1111 -7 -155 6 -259 48 -399
30 -97 96 -243 125 -276 8 -8 14 -19 14 -23 0 -9 96 -128 147 -181 84 -89 270
-222 297 -212 7 3 21 21 30 41 24 52 408 835 454 928 22 43 37 79 35 82 -2 2
-170 1 -373 -2 -233 -3 -370 -1 -370 5 0 5 14 22 30 38 17 16 30 32 30 37 0 4
-27 8 -60 8 -33 0 -60 3 -60 8 0 4 37 46 83 94 45 47 109 115 142 150 208 222
436 464 586 623 134 141 169 180 169 186 0 7 -136 20 -184 18 -17 -1 -71 -7
-121 -14z"/>
<path d="M722 3027 c-29 -31 -28 -39 11 -100 54 -85 53 -81 31 -72 -10 4 -46
18 -80 31 l-60 22 -28 -34 c-19 -25 -23 -36 -14 -39 7 -3 66 -23 131 -44 l117
-40 26 34 c14 19 24 39 22 44 -8 23 -124 220 -129 221 -3 0 -15 -10 -27 -23z"/>
<path d="M2294 2940 c-9 -22 -25 -57 -35 -77 -11 -21 -19 -41 -19 -45 0 -4
-18 -44 -39 -90 -55 -115 -151 -339 -151 -351 0 -10 334 -5 563 9 120 8 126 4
77 -49 l-30 -32 55 -3 c31 -2 55 -8 55 -14 0 -6 -15 -27 -32 -48 -18 -20 -55
-66 -83 -101 -27 -35 -68 -84 -90 -110 -22 -26 -54 -64 -72 -85 -229 -282
-318 -390 -325 -392 -4 -2 -8 -8 -8 -12 0 -5 -15 -26 -34 -47 -19 -21 -82 -96
-141 -168 -58 -71 -125 -152 -148 -179 -23 -27 -59 -72 -79 -99 -21 -28 -50
-64 -65 -81 -16 -17 -57 -66 -92 -109 -35 -42 -69 -77 -75 -77 -6 0 -3 -7 7
-14 56 -43 385 -65 532 -37 339 64 588 228 803 526 29 41 90 177 117 260 51
157 69 286 62 439 -4 70 -11 142 -16 160 -6 17 -24 76 -40 131 -39 130 -129
300 -206 392 -45 53 -122 123 -131 119 -6 -2 -11 2 -10 10 1 19 -161 135 -251
179 -39 19 -74 35 -77 35 -4 0 -13 -18 -22 -40z m686 -815 c0 -8 -2 -15 -4
-15 -2 0 -6 7 -10 15 -3 8 -1 15 4 15 6 0 10 -7 10 -15z m-153 -887 c-3 -8 -6
-5 -6 6 -1 11 2 17 5 13 3 -3 4 -12 1 -19z"/>
<path d="M533 2758 c-30 -32 -94 -148 -88 -158 5 -9 208 -120 219 -120 7 0 36
55 36 68 0 5 -18 17 -40 27 -22 10 -40 21 -40 25 0 13 29 20 75 20 38 0 46 4
64 34 12 18 21 36 21 40 0 3 -29 6 -65 6 -52 0 -65 3 -65 15 0 24 -46 65 -73
65 -13 0 -33 -10 -44 -22z m49 -93 c-5 -30 -19 -40 -36 -26 -12 10 -13 18 -5
33 13 25 45 19 41 -7z"/>
<path d="M3161 2679 c-35 -58 -51 -74 -87 -89 -24 -11 -44 -24 -44 -30 0 -14
29 -70 36 -70 2 0 23 9 46 21 37 19 46 20 125 9 47 -6 87 -9 90 -6 6 6 -27 69
-41 78 -6 4 -26 8 -43 8 -38 0 -40 8 -13 43 11 14 20 30 20 37 0 16 -29 70
-38 70 -4 0 -27 -32 -51 -71z"/>
<path d="M405 2517 c-30 -93 -55 -190 -51 -195 7 -6 216 -71 232 -72 7 0 14 8
17 18 3 9 16 56 30 104 l25 86 -22 6 c-38 10 -43 7 -61 -54 -16 -54 -35 -74
-49 -52 -3 5 2 32 11 61 8 29 13 54 11 56 -1 2 -15 6 -29 10 -25 6 -27 4 -39
-44 -12 -50 -25 -69 -38 -57 -5 6 8 67 23 107 5 12 -2 20 -25 27 -23 9 -32 8
-35 -1z"/>
<path d="M3180 2442 c-79 -43 -89 -145 -20 -214 30 -30 45 -38 74 -38 86 0
146 52 146 127 0 115 -101 178 -200 125z m130 -112 c0 -36 -26 -52 -77 -48
-68 6 -62 72 7 87 47 10 70 -3 70 -39z"/>
<path d="M354 2217 c-21 -18 -28 -35 -32 -76 -5 -60 8 -93 44 -110 45 -20 93
15 110 82 7 31 30 45 46 29 13 -13 -7 -52 -27 -52 -11 0 -15 -12 -15 -44 0
-41 1 -43 25 -38 93 17 112 186 24 222 -38 16 -81 -1 -100 -38 l-14 -27 -3 38
c-4 43 -19 47 -58 14z m50 -79 c-8 -29 -10 -31 -23 -23 -8 4 -8 12 -1 26 15
27 33 24 24 -3z"/>
<path d="M3337 2168 c-23 -8 -28 -15 -25 -37 3 -24 7 -26 51 -29 l47 -3 0 40
c0 36 -3 41 -22 40 -13 0 -36 -5 -51 -11z"/>
<path d="M3342 2083 c-19 -4 -23 -10 -20 -36 3 -31 5 -32 51 -35 l47 -3 0 40
c0 38 -2 41 -27 40 -16 -1 -38 -4 -51 -6z"/>
<path d="M469 1611 c-74 -8 -99 -30 -99 -88 0 -30 6 -49 20 -63 22 -22 29 -23
105 -22 l50 1 -78 -21 c-74 -19 -78 -22 -75 -47 3 -24 6 -26 42 -23 l39 3 -32
-36 c-23 -27 -30 -42 -25 -58 3 -12 8 -24 10 -26 4 -4 157 31 166 38 4 4 5 17
1 30 -5 21 -10 22 -46 17 l-40 -7 32 36 c29 34 31 40 25 88 -4 29 -10 56 -15
61 -5 5 -36 8 -69 7 -55 -2 -60 -1 -60 18 0 22 17 29 85 33 37 3 40 5 40 32 0
34 -2 35 -76 27z"/>
<path d="M3327 1601 c-31 -16 -38 -16 -48 -5 -16 20 -66 18 -77 -3 -5 -10 -13
-49 -16 -88 -4 -38 -14 -95 -22 -126 -18 -74 -18 -79 6 -79 11 0 20 -4 20 -10
0 -5 -8 -10 -18 -10 -38 0 -71 -65 -58 -115 4 -14 21 -34 39 -45 62 -38 118
-18 138 50 10 33 9 43 -5 65 -20 30 -27 31 -44 5 -9 -14 -9 -26 -2 -39 21 -40
-40 -52 -71 -14 -11 13 -10 18 9 33 13 11 22 29 22 45 0 26 2 27 33 21 100
-22 93 -24 105 40 17 80 15 94 -8 94 -14 0 -22 -11 -30 -40 -15 -56 -33 -52
-24 5 6 41 4 45 -14 45 -16 0 -23 -8 -28 -35 -9 -50 -29 -59 -21 -9 4 21 7 45
7 53 0 10 16 12 70 9 67 -4 71 -3 77 20 7 29 -3 39 -42 44 l-30 4 38 19 c31
16 37 24 37 52 0 18 -1 33 -3 33 -1 0 -19 -8 -40 -19z m-72 -69 c0 -18 -20
-15 -23 4 -3 10 1 15 10 12 7 -3 13 -10 13 -16z"/>
<path d="M507 1223 c-60 -23 -67 -28 -61 -47 11 -38 21 -39 96 -10 88 33 88
33 77 62 -10 27 -25 26 -112 -5z"/>
<path d="M565 1151 c-100 -55 -92 -43 -70 -91 26 -58 60 -83 104 -75 l34 6
-22 -27 c-25 -32 -27 -61 -5 -94 40 -60 97 -68 145 -21 35 36 38 77 7 117 -32
42 -39 45 -79 41 -36 -5 -36 -4 -18 14 10 10 19 30 19 44 0 31 -40 115 -54
114 -6 0 -33 -13 -61 -28z m65 -65 c0 -19 -22 -35 -50 -38 -32 -4 -38 25 -8
40 32 15 58 14 58 -2z m90 -140 c0 -2 3 -11 6 -19 7 -20 -22 -47 -52 -47 -19
0 -24 5 -24 25 0 13 8 29 18 34 17 10 52 15 52 7z"/>
<path d="M3051 1080 c-18 -33 -30 -64 -26 -69 6 -11 129 -81 142 -81 4 0 23
28 42 62 32 59 33 62 15 75 -17 12 -21 10 -39 -22 -11 -19 -26 -35 -32 -35
-17 0 -16 11 3 38 9 13 13 29 10 37 -9 25 -33 17 -46 -15 -7 -16 -16 -30 -21
-30 -14 0 -11 15 9 49 15 28 15 33 2 41 -23 15 -25 14 -59 -50z"/>
<path d="M2994 976 c-31 -22 -79 -95 -68 -106 5 -4 36 -29 68 -54 l60 -46 20
21 20 22 -27 23 c-36 31 -34 35 13 28 34 -6 43 -3 59 17 24 30 19 39 -25 39
-24 0 -37 5 -41 18 -8 24 -34 52 -47 52 -6 0 -21 -6 -32 -14z m18 -78 c-15
-15 -26 -4 -18 18 5 13 9 15 18 6 9 -9 9 -15 0 -24z"/>
<path d="M792 863 c-27 -11 -33 -41 -16 -83 17 -42 15 -58 -6 -45 -7 4 -10 15
-7 26 6 21 -26 54 -42 44 -20 -12 -12 -63 15 -94 42 -50 114 -37 114 20 0 25
3 29 19 24 14 -4 21 0 26 14 8 25 -7 53 -41 80 -27 21 -38 24 -62 14z m48 -68
c0 -8 -2 -15 -4 -15 -2 0 -6 7 -10 15 -3 8 -1 15 4 15 6 0 10 -7 10 -15z"/>
<path d="M2854 816 c-43 -43 -44 -74 -3 -121 41 -46 87 -48 130 -6 29 30 40
83 19 96 -18 11 -50 -15 -50 -40 0 -20 -5 -25 -24 -25 -45 0 -64 62 -21 68 29
4 52 42 33 53 -25 16 -50 9 -84 -25z"/>
<path d="M927 655 c-26 -36 -47 -69 -47 -73 0 -4 9 -13 21 -20 18 -12 24 -11
40 7 22 23 35 26 44 11 10 -17 61 -11 78 8 27 30 20 58 -25 96 -23 20 -47 36
-53 36 -6 0 -32 -29 -58 -65z m93 -21 c0 -9 -5 -14 -12 -12 -18 6 -21 28 -4
28 9 0 16 -7 16 -16z"/>
<path d="M2670 664 c-25 -19 -76 -51 -115 -71 -38 -19 -76 -40 -83 -46 -19
-15 -138 -56 -229 -79 -46 -11 -83 -24 -83 -29 0 -10 40 -162 43 -166 4 -4
132 30 140 37 4 4 5 14 1 24 -5 14 -14 16 -50 10 -54 -8 -61 12 -8 22 29 5 34
10 32 28 -2 11 -8 20 -13 20 -6 -1 -25 -4 -42 -7 -19 -4 -33 -2 -33 3 0 5 18
13 39 16 29 5 41 12 43 26 2 12 15 -10 33 -56 28 -72 32 -76 55 -71 34 9 34 9
22 44 -13 38 4 43 34 10 13 -14 25 -18 44 -14 41 10 44 22 11 46 -40 30 -44
80 -7 97 23 10 27 8 50 -35 14 -25 26 -49 26 -54 0 -13 22 -10 43 5 17 14 17
16 -7 65 -32 62 -32 65 -2 79 23 10 27 7 56 -39 18 -27 36 -49 41 -49 16 0
119 74 119 85 0 6 -5 16 -11 22 -9 9 -20 5 -46 -14 -22 -17 -37 -23 -44 -16
-6 6 2 17 21 31 32 24 34 30 21 51 -7 11 -15 9 -40 -10 -17 -12 -34 -19 -38
-16 -6 6 8 19 50 48 13 9 1 39 -15 38 -7 0 -33 -16 -58 -35z m-240 -199 c0 -2
-9 -9 -20 -15 -16 -9 -20 -8 -20 5 0 8 9 15 20 15 11 0 20 -2 20 -5z"/>
<path d="M1063 562 c-39 -31 -72 -60 -72 -63 -1 -10 48 -29 63 -23 21 8 56
-14 56 -34 0 -9 9 -23 20 -30 18 -11 21 -9 30 10 5 13 14 54 20 92 11 68 11
71 -12 88 -13 10 -25 18 -28 18 -3 0 -37 -26 -77 -58z m57 -42 c0 -5 -2 -10
-4 -10 -3 0 -8 5 -11 10 -3 6 -1 10 4 10 6 0 11 -4 11 -10z"/>
<path d="M1220 513 c-24 -54 -45 -122 -39 -127 2 -2 14 -7 27 -11 19 -5 24 -2
33 24 14 38 29 31 29 -13 0 -31 4 -35 55 -56 44 -18 58 -20 70 -10 20 16 61 5
67 -18 3 -11 17 -21 33 -24 l27 -6 -7 92 c-3 50 -10 94 -13 98 -4 4 -18 9 -32
13 -23 5 -31 -2 -73 -60 -27 -37 -51 -64 -55 -61 -17 18 -11 56 13 80 14 14
25 30 25 36 0 19 -50 58 -96 74 l-44 15 -20 -46z m90 -39 c0 -9 -5 -14 -12
-12 -18 6 -21 28 -4 28 9 0 16 -7 16 -16z m146 -101 c-10 -10 -19 5 -10 18 6
11 8 11 12 0 2 -7 1 -15 -2 -18z"/>
<path d="M2043 425 c-40 -17 -57 -48 -49 -93 8 -51 41 -82 88 -82 64 0 118 70
66 84 -16 4 -28 -1 -39 -16 -24 -31 -49 -17 -49 26 0 39 14 53 34 36 15 -11
66 -4 66 10 0 13 -51 50 -69 50 -9 -1 -30 -7 -48 -15z"/>
<path d="M1630 408 c0 -13 -3 -53 -7 -90 l-6 -68 32 0 c27 0 31 3 31 28 0 35
6 41 31 35 14 -4 19 -14 19 -39 0 -31 3 -34 29 -34 27 0 30 3 35 43 3 23 7 62
8 87 3 44 2 45 -29 48 -30 3 -33 1 -33 -22 0 -21 -5 -26 -25 -26 -22 0 -25 4
-23 28 3 24 -1 27 -29 30 -29 3 -33 0 -33 -20z"/>
<path d="M1859 393 c-32 -85 -50 -144 -45 -152 7 -11 47 -2 64 16 18 18 52 17
52 -2 0 -10 11 -15 35 -15 19 0 35 3 35 8 0 4 -15 43 -33 87 -31 75 -35 80
-65 83 -27 3 -34 -1 -43 -25z m47 -80 c-10 -10 -19 5 -10 18 6 11 8 11 12 0 2
-7 1 -15 -2 -18z"/>
</g>
</svg>
